<svg xmlns="http://www.w3.org/2000/svg" id="logo" fill-rule="evenodd" stroke-linecap="round" stroke-linejoin="round" stroke-miterlimit="1.5" clip-rule="evenodd" viewBox="0 0 534 534">
  <g transform="scale(2.08333)">
    <g id="left-eye">
      <ellipse cx="68.1" cy="164.8" fill-opacity="0" id="left-pupil" stroke-width="7.9" rx="3.4" ry="10.6" transform="matrix(1.02209 0 0 1 41.7 -3.6)"/>
      <ellipse cx="64.9" cy="166.3" fill-opacity="0" id="left-outline" stroke-width="8" rx="10.5" ry="24.3" transform="translate(44.2 -3.6)"/>
    </g>
    <g id="right-eye">
      <ellipse cx="68.1" cy="164.8" fill-opacity="0" id="right-pupil" stroke-width="7.9" rx="3.4" ry="10.6" transform="matrix(1.02209 0 0 1 83.6 -17.6)"/>
      <ellipse cx="64.9" cy="166.3" fill-opacity="0" id="right-outline" stroke-width="8" rx="10.5" ry="24.3" transform="translate(85.2 -17.6)"/>
    </g>
    <path id="mouth" d="M106.3 200.4h.6l.3.2h.2l.3.2.3.1.2.2.3.2.2.2.2.2.1.1.2.3.2.2.1.3.2.2v.2l.1.2v.2l.1.2v.1l.1.2V204.5h.1V206.2l-.1.2V206.6l-.1.2V207l-.1.2V207.6l-.1.1v.4l-.2.3v.3l-.1.3-.1.3-.1.2-.1.3v.3l-.2.3v.2l-.1.3-.2.4-.1.4v.2l-.1.2-.2.3v.4l-.2.3-.1.3-.1.4-.1.3-.2.3v.4l-.2.3-.1.3-.1.3-.2.4-.1.3-.1.3-.2.4v.3l-.2.3-.2.3v.4l-.2.3-.2.3v.2h.3l.2.1h.2l.2.1h.4l.4.2h.4l.4.1.4.1.4.1.8.2h.4l.3.2h.4l.4.1h.2l.1.1h.4l.2.1h.5l.1.1h.5l.2.1h.6l.2.1H116.7v-.1H117v-.1H117.4l.1-.1h.1l.1-.1h.2v-.1h.2v-.1l.2-.1.2-.1.2-.1v-.1h.2v-.1l.2-.1.2-.2.2-.1.1-.1h.1l.1-.2h.1l.1-.2h.1l.2-.1v-.1l.2-.1v-.1l.2-.1.1-.1.1-.2h.1l.1-.2h.2v-.2l.2-.1v-.1l.2-.1.1-.2h.1l.1-.2.1-.1.2-.1v-.2h.2v-.2l.2-.1.1-.2.1-.1.1-.1.1-.2h.2v-.2l.2-.2.2-.2v-.2l.2-.1.2-.3.2-.3.2-.2.2-.3.2-.3.2-.3.2-.2.2-.3.2-.3.2-.3.2-.3.2-.2.2-.3.2-.3.1-.3.2-.2.2-.3.2-.3.1-.2.2-.3.3-.5.3-.4.3-.5.2-.3.1-.2.2-.2.3-.2.2-.2.2-.2.3-.1.3-.1.3-.2h.2l.3-.1h1.8l.3.1.3.1.2.2.3.1.3.2.2.2.2.2.2.2.2.2.2.3.1.2.1.3.2.3v.3l.1.3v1.7l-.1.3-.1.3-.2.3-.1.2-.3.5-.3.5-.4.5-.1.3-.2.3-.2.2-.2.3-.2.3-.2.3-.2.3-.2.3-.2.3-.2.3-.2.3-.2.4-.2.3-.3.3-.2.3-.2.3-.3.4-.2.3-.2.3-.3.3-.1.2-.2.1v.2l-.2.2-.1.1-.2.2-.1.1-.1.2-.2.2-.1.1-.1.2-.2.1-.1.2-.2.2v.1l-.2.2-.2.1-.1.2-.2.1-.1.2-.2.1-.1.2-.1.1-.2.2-.1.1-.2.2-.2.1-.1.2-.2.1-.1.2-.2.1-.1.2h-.2l-.2.2-.1.2-.2.1-.1.1-.2.2-.2.1-.1.1-.2.2h-.2l-.2.2-.1.1-.2.2h-.2l-.2.2-.2.1-.1.1-.2.1-.2.2h-.2l-.2.2h-.2l-.2.2h-.2l-.2.2h-.2l-.2.2h-.2l-.2.1-.2.1h-.2l-.2.2h-.2l-.2.1h-.2l-.3.1h-.2l-.2.1h-.2l-.1.1h-.5l-.1.1h-.7l-.3.1h-3.4l-.2-.1h-.7l-.2-.1h-.4l-.3-.1h-.2l-.2-.1h-.4l-.2-.1h-.2l-.3-.1h-.2l-.4-.1-.4-.1-.4-.1-.4-.1-.7-.2h-.4l-.4-.1-.4-.1-.3-.1h-.4l-.1-.1h-.4l-.1-.1h-.4l-.1-.1h-.5l-.3-.1h-.5l-.2-.1h-.3l-.2-.1-.3-.1h-.1l-.2.2-.1.3-.2.3-.2.3-.2.3-.2.3-.2.3-.2.3-.2.3-.2.3-.2.3-.2.3-.2.3-.2.3-.2.3-.2.3-.2.3-.3.3-.2.3-.2.3-.2.3-.5.6-.2.4-.3.3-.3.4-.1.2-.2.2-.1.2-.2.2-.1.1-.2.2-.2.2-.1.2-.2.2-.2.2-.1.2-.2.2-.2.2-.2.2-.1.2-.2.2-.2.2-.2.2-.2.2-.2.2-.2.2-.2.2-.2.2-.2.2-.1.1-.1.1-.1.1-.1.1h-.2v.2h-.2v.2h-.2l-.1.1-.1.1-.1.1-.2.1v.1h-.2l-.1.2h-.1l-.2.1v.1l-.2.1h-.1l-.2.2h-.1l-.1.1-.2.1-.2.2h-.2l-.1.1h-.1l-.2.1-.1.1H88l-.1.1-.2.1h-.1l-.1.1h-.2l-.2.1h-.1l-.2.1h-.1l-.2.1h-.1l-.2.1H86l-.2.1H85.5l-.2.1H84.2l-.2.1H81.7l-.1-.1h-.4l-.1-.1h-.4l-.2-.1H80.2l-.2-.1h-.1l-.2-.1h-.2l-.2-.1h-.1l-.1-.1h-.2l-.1-.1H78.5v-.1l-.2-.1h-.1l-.2-.1-.2-.1h-.1l-.2-.1-.1-.1h-.1l-.1-.1H77v-.2H76.6l-.1-.2h-.1l-.2-.1-.2-.2h-.3v-.2H75.4v-.1H74l-.3-.2h-.3l-.3-.2-.2-.2-.3-.1-.2-.2-.3-.2-.2-.2-.1-.2-.2-.3-.2-.2-.1-.3-.1-.3-.1-.3v-.3l-.1-.3V235.4l.2-.3v-.2l.2-.3.1-.3.2-.2.2-.3.2-.2.2-.3.2-.2.3-.1.2-.2.3-.1.2-.1.3-.1.2-.1h.2l.2-.1h.5l.2-.1h1l.2.1h.4l.2.1h.1l.2.1h.1l.1.1h.2l.1.1h.1l.1.1h.2v.1l.2.1.2.1.2.1.2.1.2.1.2.1.2.1.1.1.2.1.3.2.2.1.2.1.1.1h.1l.1.1h.1l.1.1h.1l.1.1h.2v.1H81.9l.1.1H82.3l.1.1h.7v.1H84.6v-.1h.2l.1-.1h.1l.1-.1h.1l.1-.1h.1l.1-.1.1-.1h.1l.1-.1.1-.1.2-.1.1-.1h.1v-.1l.1-.1h.1v-.1h.1l.1-.1.1-.1.1-.1.1-.1.2-.2h.1l.2-.2v-.2l.2-.1.2-.2.1-.1.1-.2.2-.1.1-.2.2-.1.1-.2.1-.1.2-.2.1-.2.1-.1.2-.2.1-.2.1-.1.2-.2.1-.2.1-.1.2-.2.2-.3.3-.3.2-.4.5-.6.2-.3.2-.3.2-.3.2-.2.2-.3.2-.2.2-.3.1-.2.2-.3.2-.3.2-.2.1-.3.2-.2.2-.3.1-.3.2-.2.1-.2-.4-.2-.8-.4-.7-.4-.4-.2-.4-.2-.3-.1-.4-.2-.3-.2h-.4l-.3-.1h-.1l-.2-.1h-.2l-.2-.1-.2-.1h-.2l-.1-.1H88.4v-.1h-.2l-.1-.1H88l-.2-.1-.2-.2h-.2l-.2-.2H87l-.1-.2h-.2l-.2-.2-.1-.1-.2-.2-.2-.2-.2-.2-.1-.1-.1-.1-.1-.2-.1-.1-.1-.2v-.1l-.2-.2v-.2l-.1-.2-.1-.2v-.2l-.1-.2v-.2l-.1-.3v-1.4l.1-.2v-.2l.2-.2V214.7l.2-.2v-.2l.1-.1v-.2l.2-.1v-.2l.2-.1v-.2l.1-.1.1-.2h.1l.1-.2.1-.2h.1l.1-.2.1-.1.1-.1.1-.2h.1l.1-.2.1-.1.2-.1v-.1l.2-.1v-.1l.2-.1.1-.1.1-.1.1-.1.1-.1h.2v-.2h.2l.1-.2h.1l.1-.1.2-.1.2-.2h.1l.1-.1.1-.1h.2v-.2h.2l.2-.2.3-.1.2-.2h.2l.3-.2.2-.1.2-.2h.3l.2-.2.3-.1.2-.1.2-.1.3-.2h.2l.2-.2h.2l.3-.2h.2l.4-.3.4-.1.4-.2.4-.2.4-.1.4-.2h.1l.2-.1.1-.1h.2l.1-.1.1-.1h.2v-.1h.1l.1-.1.2-.1.2-.2.2-.1.2-.2.2-.2.3-.2.5-.4.5-.4.6-.5.6-.4.5-.5 1-.7.3-.3.3-.3h.2l.1-.2.2-.1h.1l.2-.2.2-.1.3-.1.3-.1.3-.1h.3l.3-.1h.6zM79 236.9v-.2.2zm19.8-22.7l-.4.1-.4.2-.4.2-.4.1-.2.1-.2.1-.2.1-.2.1h-.2l-.1.2h-.2v.1l.8.4.7.4.4.2h.3l.2-.4v-.2l.2-.3.1-.3.2-.3v-.3l.2-.3.1-.3h-.3z" transform="translate(44.2 -3.6)"/>
    <g id="whiskers">
      <path d="M102.5 224.9h.7l.1.1h.2l.1.1h.2l.2.1.1.1h.2l.1.2h.1l.2.1.1.1.2.2.2.2.1.1.1.1.1.2h.1l.1.2.1.2v.1l.2.2V227.5l.2.1v.5l.1.2v1.7l-.1.1v.2l-.2.1V230.7l-.2.2v.1l-.1.2-.1.1-.1.1-.2.2-.2.2-.1.1-.1.1-.2.1-.1.1-.2.1h-.1l-.1.2-.4.1-.3.2-.3.2-.3.1-.4.2-.3.2-.3.1-.3.2-.3.2-.3.1-.3.2-.3.2-.2.2-.3.1-.3.2-.3.2-.2.2-.3.1-.3.2-.3.2-.2.2-.3.2-.2.1-.3.2-.3.2-.2.2-.3.2-.2.2-.3.2-.2.2-.2.2-.3.1-.2.2-.3.3-.2.2-.3.2-.2.2-.2.2-.3.2-.2.2-.3.2-.2.3-.2.2-.3.2-.2.2-.2.3-.3.2-.2.2-.2.3-.3.2-.2.3-.3.2-.2.3-.2.2-.3.3-.2.3-.2.2-.3.3-.2.3-.3.3-.2.2-.3.3-.2.3-.3.3v.2h-.2l-.1.2-.1.1-.2.1v.1l-.2.1h-.2l-.1.2h-.2l-.1.1h-.2l-.1.1-.2.1H85.3l-.2.1h-1.6l-.2-.1h-.2l-.1-.1h-.2l-.1-.2h-.2l-.1-.1-.2-.1v-.1l-.2-.1-.2-.1v-.1l-.2-.2h-.1l-.1-.2-.1-.1-.1-.2-.1-.1-.1-.2v-.1l-.2-.2V244.7l-.1-.1v-.2l-.1-.1v-.4l-.1-.1v-1.4l.1-.1v-.2l.1-.2.1-.1v-.2l.1-.1.1-.2.1-.1.1-.1.1-.2.1-.1.3-.3.2-.3.3-.4.3-.3.2-.3.3-.3.3-.3.2-.3.3-.3.3-.3.2-.3.3-.2.3-.3.3-.3.2-.3.3-.3.3-.2.2-.3.3-.3.3-.2.3-.3.2-.3.3-.2.3-.3.3-.2.2-.3.3-.2.3-.3.3-.2.3-.3.3-.2.2-.3.3-.2.3-.2.3-.2.3-.3.3-.2.3-.2.3-.3.3-.2.3-.2.3-.2.3-.2.4-.2.3-.2.3-.3.3-.2.3-.2.4-.2.3-.2.3-.2.3-.2.4-.2.3-.2.4-.2.3-.2.4-.2.3-.2.4-.1.3-.2.4-.2.3-.2.4-.2.4-.2h.1l.2-.1h.1l.2-.1h.1l.2-.1h.5l.2-.1H102.5zM101.5 213.8h.5l.2.1h.3l.2.1h.2l.2.2h.2l.3.2.1.1.2.1.2.2.2.1.2.2.1.2.2.2v.2l.2.1.1.3.1.2.1.2v.2l.1.2v.3l.1.2v1.4l-.1.2v.2l-.2.2v.2l-.2.2-.1.2-.1.2-.2.2-.1.2-.2.2-.2.1-.2.2h-.2l-.2.2-.2.1-.2.1-.2.1h-.2l-.2.1h-.3l-.2.1h-8.3l-.4.1h-3l-.4.1H88.2l-.5.1H87l-.4.1h-.9l-.4.1h-.8l-.4.1h-.4l-.5.1h-.4l-.4.1H82l-.4.1h-.4l-.4.2h-.8l-.2.1h-.4l-.2.1h-.2l-.2.1h-.4l-.2.1h-.2l-.2.1h-.4l-.2.1h-.2l-.2.1h-.2l-.2.1H76l-.2.1h-.2l-.2.1h-.2l-.2.1h-.2l-.2.1h-.3l-.3.2h-.4l-.2.1-.3.1H73l-.2.2h-.3l-.2.1H72v.1h-.2l-.1.1h-.2v.1H71.1l-.1.1H71l-.1.1h-.2l-.1.1-.2.1-.1.3-.2.1-.1.2-.2.2-.1.2-.2.1-.2.1-.2.2h-.2l-.2.2h-.2l-.2.2h-.5l-.2.1H66l-.3-.1-.2-.1-.2-.1-.2-.1-.2-.1-.2-.1-.2-.2-.2-.1-.1-.2-.2-.2-.1-.1-.2-.2-.1-.2-.1-.2-.1-.2-.1-.2-.1-.3v-.2l-.1-.2v-.5l-.1-.2V222.7l.1-.2v-.3l.1-.2.1-.2v-.2l.2-.2v-.2l.2-.1v-.2l.2-.1v-.2l.2-.1v-.1l.2-.2.2-.2.2-.2.1-.2h.1l.1-.1h.1l.1-.2h.1l.1-.1h.1l.1-.1.1-.1.2-.1.2-.1.1-.1.2-.1.2-.1.2-.1h.1l.2-.2h.2l.2-.1.1-.1h.2l.2-.1.2-.1h.1l.2-.1.2-.1h.1l.2-.1h.2l.1-.1.2-.1h.2l.1-.1.3-.1.3-.1h.3l.3-.2h.3l.2-.1h.3l.2-.1.3-.1.3-.1h.2l.2-.1h.3l.2-.1.2-.1h.3l.2-.1h.2l.2-.1h.3l.2-.1h.2l.3-.1h.2l.2-.1h.2l.3-.1h.2l.2-.1h.3l.2-.1h.5l.2-.1h.2l.2-.1h.5l.5-.2h.9l.4-.1.5-.1h.5l.4-.1h.5l.4-.1h.5l.4-.1h.5l.5-.1h.9l.4-.1h1.4l.5-.1h1.3l.5-.1h2.7l.4-.1h8.5zm-30.5 10v-.2.1zM228.1 183.7h.5l.2.1h.3l.2.2h.2l.2.2h.3l.2.2.2.2.1.1.2.2.2.2.1.1.2.2.1.2.1.2.1.3.1.2.1.2v.2l.1.3v.5l.1.2v.7l-.1.3v.2l-.2.2v.2l-.1.3-.2.2-.1.2-.1.2-.2.2-.2.1-.1.2-.2.2-.2.1-.2.1-.2.2h-.2l-.3.2h-.2l-.2.1h-.5l-.2.1h-2.5l-.2.1h-1.2l-.3.1h-.7l-.3.1h-.5l-.2.1h-.8l-.5.2h-.5l-.5.1h-.5l-.5.1-1 .2-1.1.2h-.6l-.5.1h-.6l-.5.1-.5.1h-.6l-.3.1h-.5l-.3.1h-.8l-.3.1h-.7l-.7.1h-.6l-.7.1-1.3.1h-.6l-.6.1h-.7l-.6.1h-.6l-.7.1h-.3l-.3.1H202.1l-.3.1h-.3l-.4.1h-.6l-.3.1h-.6l-.3.1h-.3l-.3.1h-.3l-.3.1h-.3l-.3.1h-.3l-.3.1h-.2l-.3.1-.3.1h-.3l-.3.1h-.3l-.3.2h-.6l-.2.2h-.3l-.3.1-.3.1h-.3l-.3.2h-.2l-.3.1-.3.1-.2.1h-.3l-.2.1h-1.5l-.2-.1-.2-.1h-.2l-.3-.2-.2-.1-.2-.1-.2-.2-.2-.1-.1-.2-.2-.2-.2-.1-.1-.2-.2-.2v-.2l-.2-.3v-.2l-.2-.2v-.5l-.1-.2v-1.5l.1-.2v-.2l.2-.2v-.3l.2-.2.1-.2.2-.2.1-.2.2-.1.1-.2.2-.2.2-.1.2-.2h.2l.2-.2h.3l.2-.2h.3l.4-.2h.3l.4-.2h.3l.3-.2h.4l.3-.2h.4l.3-.1.4-.1.3-.1h.4l.3-.2h.3l.4-.1h.3l.4-.1.3-.1h.3l.4-.1h.3l.4-.1h.3l.3-.1h.4l.3-.1h.4l.3-.1h.3l.4-.1h.6l.4-.1h.3l.4-.1h.6l.4-.1H203.5l.7-.1.7-.1h.6l.7-.1h.6l1.3-.2H209.4l.6-.1H211l.3-.1h.7l.3-.1h.7l.3-.1h.5l.5-.2h.5l.5-.1h.5l1-.2 1.1-.2h.6l.5-.1.5-.1h.6l.5-.1.6-.1h.5l.3-.1h.6l.2-.1H223.6l.3-.1h1.1l.3-.1h2.8zM207.3 156.4H207.9l.2.1h.1l.2.2h.2l.2.1.1.1.2.1.2.1.1.1.2.1.1.2.2.1.1.1.1.2.1.1.2.2v.2l.2.1v.2l.1.2v.2l.1.1v.2l.1.2v.4l.1.2v1l-.1.1v.2l-.1.2v.2l-.2.2v.2l-.1.1-.1.2-.1.1-.2.2v.1l-.2.2-.2.1-.1.1-.2.2h-.1l-.2.2h-.1l-.2.2-.2.1-.2.1-.2.1-.2.1-.2.2h-.2l-.2.2-.2.1-.2.1-.2.1-.2.2h-.2l-.2.2-.2.1-.2.2h-.2l-.1.2-.2.1-.2.2h-.2l-.2.2-.2.2h-.2l-.2.2-.2.2h-.2l-.2.2-.2.2-.2.1-.2.1-.2.2-.2.1-.1.2-.2.1-.2.1-.2.2-.2.1-.2.2-.2.1-.2.2-.2.1-.2.2-.2.1-.1.2-.2.1-.2.2-.2.1-.2.2-.2.1-.2.2-.2.2-.1.1-.2.2-.2.1-.2.2-.2.1-.2.2-.2.2-.1.1-.2.2-.2.1-.2.2-.2.2-.1.1-.2.2-.2.2-.2.1-.2.2-.1.2-.2.1-.2.2-.2.2-.1.1-.2.2-.2.2-.2.2-.1.1-.2.2-.2.2-.1.1-.2.2-.2.2-.1.2-.2.1-.2.2-.1.2-.2.2-.2.1-.1.2-.2.2-.1.2-.2.2-.2.1-.1.2-.2.2-.1.2-.2.1-.1.2-.2.2-.1.2-.2.2-.2.1-.1.2-.1.2-.2.2-.1.2-.2.2-.1.1-.2.2-.1.2-.2.2-.1.2-.1.1-.2.2-.1.2-.1.2-.2.2-.1.2-.1.1-.2.2-.1.2-.1.2-.2.2v.2l-.2.1-.1.2-.2.2v.2l-.2.1-.1.2-.2.1-.1.1-.1.2h-.2l-.2.2-.1.1-.2.1h-.2l-.1.2h-.2l-.2.1h-.2l-.2.1H182.4l-.2-.1h-.1l-.2-.2h-.2l-.2-.1-.1-.1-.2-.1-.2-.2h-.1l-.1-.2-.2-.1-.1-.2-.1-.1-.2-.2v-.2l-.2-.1v-.2l-.1-.2-.1-.1v-.2l-.1-.2v-.2l-.1-.2v-1.9l.1-.2.1-.2.1-.1v-.2l.2-.2v-.1l.2-.2.2-.3.1-.2.2-.2.1-.2.2-.2.1-.2.2-.2.1-.2.2-.2.1-.3.2-.2.1-.2.2-.2.1-.2.2-.2.2-.2.1-.2.2-.2.2-.2.1-.2.2-.2.2-.3.1-.2.2-.2.2-.2.1-.2.2-.2.2-.2.2-.2.1-.2.2-.2.2-.2.2-.2.1-.2.2-.2.2-.2.2-.2.2-.2.1-.2.2-.2.2-.2.2-.2.2-.2.2-.2.2-.1.1-.2.2-.2.2-.2.2-.2.2-.2.2-.2.2-.2.2-.2.2-.2.2-.2.2-.1.2-.2.2-.2.2-.2.2-.2.2-.2.2-.2.2-.1.2-.2.2-.2.2-.2.2-.2.2-.1.2-.2.2-.2.2-.2.2-.2.2-.1.2-.2.2-.2.2-.1.2-.2.2-.2.2-.2.2-.1.3-.2.2-.2.2-.1.2-.2.2-.2.2-.1.2-.2.2-.2.2-.1.3-.2.2-.2.2-.1.2-.2.2-.1.2-.2.3-.1.2-.2.2-.2.2-.1.2-.2.2-.1.3-.2.2-.1.2-.2.2-.1.2-.2.2-.1.3-.1.2-.2.2-.1.2-.2.2-.1.3-.2.2-.1.2-.1.2-.2.2-.1.3-.1.2-.2.2-.1.2-.1.3-.2h.2l.2-.2.2-.1.2-.2h.3l.1-.2h.2l.2-.1.2-.1h.2l.1-.1H206.7l.2-.1h.4z"/>
    </g>
    <path id="ear-right" d="M186 20.5H188.4l.2.1h1l.2.1h.8l.2.1h.7l.2.1H192.4l.2.1h.4l.2.1h.4l.2.1h.4l.2.1h.4l.2.1h.2l.2.1h.4l.2.1h.2l.3.1h.2l.2.1h.2l.2.1h.2l.2.1h.2l.2.1h.2l.2.1h.2l.2.1.2.1h.2l.2.1h.3l.2.1.2.1h.2l.2.1h.2l.2.2h.4l.2.2h.4l.2.2h.2l.3.1.3.1.3.1.3.2.4.1.3.1.3.2h.3l.4.2.3.2.3.1.3.1.4.2.3.1.3.2.3.1.3.2.3.1.3.2.4.2.3.1.3.2.3.1.3.2.3.2.3.1.3.2.3.2.3.2.3.1.3.2.3.2.3.2.3.2.3.1.3.2.3.2.2.2.3.2.3.2.3.2.3.2.3.2.3.2.2.2.3.2.3.2.3.1.2.3.3.2.3.2.3.2.2.2.3.2.3.2.2.2.3.2.3.2.2.2.3.2.3.2.2.3.3.2.2.2.3.2.4.3.3.3.4.3.1.2.2.1.2.2.2.1.1.2.2.1.2.2.2.2.1.1.2.2.2.1.1.2.2.2.2.1.2.2.1.2.2.1.2.2.1.2.2.1.2.2.1.2.2.1.2.2.1.2.2.1.1.2.2.2.2.2.1.1.2.2.1.2.2.2.2.1.1.2.2.2.1.2.2.2.2.1.1.2.2.2.1.2.2.2.1.2.2.1.1.2.2.2.1.2.2.2.1.2.2.2.1.1.2.2.1.2.2.2.1.2.1.2.2.2.1.2.2.2.1.2.1.2.2.2.1.2.2.2.1.2.1.2.2.2.1.2.1.2.2.2.1.2.1.2.2.2v.2l.2.2.1.2.2.2v.2l.2.2.1.2.2.2v.2l.2.2.1.2.1.2.2.3v.2l.2.2.1.2.1.2.1.2.1.2.2.2v.3l.2.2v.2l.2.2v.2l.2.2v.3l.2.2.1.2.1.2v.2l.2.3v.2l.2.2v.2l.2.3v.2l.2.2v.2l.1.3.1.2.1.2v.2l.2.3v.2l.1.2.1.3v.2l.2.2V59.9l.1.2v.2l.1.2.1.2v.2l.1.3v.2l.1.2v.2l.1.2v.3l.1.2v.2l.1.3v.2l.1.2v.3l.1.2v.8l.1.2V68.3l-.1.2v.4l-.1.2V69.4l-.1.1v.2l-.1.1v.1l-.1.2v.1l-.1.2v.1l-.1.2v.1l-.1.2-.1.1v.2l-.2.1v.2l-.1.1-.1.2v.1l-.2.1v.2l-.2.1v.2l-.2.1v.1l-.2.2-.1.1-.1.1-.2.2v.1l-.2.1-.1.1-.2.2h-.1l-.2.2-.1.1-.2.1-.1.1-.2.1-.1.1-.2.1-.1.1-.2.1h-.2l-.1.2h-.2l-.1.1h-.2l-.1.1h-.1l-.2.1-.2.1h-.1l-.2.1-.2.1H233.6l-.1.1H233.2v.1h-.5v.1h-.5l-.2.1h-.8v.1H228l-.3-.1H227.2l-.2-.1h-.5l-.2-.1h-.2l-.2-.1h-.2l-.2-.1h-.4l-.2-.1h-.2l-.2-.1h-.2l-.2-.1h-.2l-.2-.1-.4-.1-.3-.1-.4-.1-.3-.1-.4-.1-.6-.2-.4-.1-.4-.1-.4-.2h-.3l-.4-.2-.4-.1-.4-.1-.4-.2h-.4l-.3-.2-.4-.1-.4-.2-.4-.1-.3-.1-.4-.2h-.4l-.7-.3-.8-.3-.7-.3-.7-.2-1.5-.6-.7-.2-.7-.3-.8-.2-.7-.3-.7-.2-.4-.2h-.3l-.4-.2-.3-.1-.4-.1-.3-.2h-.4l-.3-.2-.4-.1-.4-.1-.3-.1-.4-.1-.3-.2h-.4l-.3-.2h-.4l-.3-.2h-.4l-.3-.2h-.4l-.3-.1-.4-.1-.3-.1-.4-.1-.4-.1h-.3l-.4-.2h-.5l-.4-.2h-.4l-.4-.1h-.2l-.3-.1h-.4l-.2-.1h-.2l-.2-.1h-.4l-.2-.1h-.5l-.2-.1H192.5l-.2-.1h-.7l-.2-.1H190.8l-.2-.1h-1.2l-.3-.1H184.5l-.2.1h-.7l-.2.1h-.4l-.2.1h-.4l-.2.1H182l-.2.1h-.2l-.2.1h-.2l-.2.1h-.2l-.1.1h-.2l-.2.1h-.2l-.2.1h-.1l-.2.1-.2.1h-.1l-.2.1h-.2l-.2.2H178.3l-.1.2h-.4l-.1.2h-.2l-.2.1h-.1l-.2.2h-.1l-.2.1-.1.1h-.2l-.1.2h-.2l-.1.2h-.2l-.1.1-.2.1-.1.1-.2.1-.2.2h-.2l-.1.2h-.2v.2h-.2l-.2.2h-.1l-.1.2-.2.1-.1.1-.1.1-.2.1v.1l-.2.1-.2.2-.2.2-.1.1-.2.1v.1l-.2.2h-.1l-.2.2v.1l-.2.2h-.1l-.1.2-.2.1v.2h-.2l-.1.2-.1.2h-.1l-.1.2-.2.2-.2.2v.2l-.2.1-.1.2h-.1l-.1.2-.1.2-.1.1-.1.2-.2.1v.2l-.2.1v.2l-.2.1v.2l-.2.1v.2l-.2.1v.2l-.2.2v.1l-.2.2v.1l-.1.2-.1.2-.1.1-.1.2-.1.1-.1.2v.2l-.2.1v.2l-.2.2v.2l-.1.1-.1.2-.1.2v.1l-.2.2v.2l-.1.2-.1.1-.1.2v.2l-.2.2v.2l-.1.1-.1.2v.2l-.2.2v.2l-.1.2v.1l-.2.2v.2l-.1.2v.2l-.1.2-.1.2v.2l-.1.1-.1.2v.2l-.2.2v.4l-.1.2-.1.2v.2l-.1.2-.1.2v.2l-.1.2v.2l-.1.2-.1.2v.2l-.1.2-.1.4-.2.4v.4l-.2.4v.4l-.2.4v.4l-.2.4v.4l-.2.4v.4l-.1.4-.1.4-.1.5v.4l-.2.4v.4l-.1.4-.1.4v.4l-.1.5-.1.4v.4l-.1.4-.1.4v.4l-.1.4v.4l-.1.5-.1.4v.4l-.1.4v.4l-.1.4v.4l-.1.4v.8l-.1.4v.4l-.1.4v.8l-.1.4-.1.4-.2.4-.1.4-.3.3-.2.3-.3.3-.3.3-.3.2-.4.2-.3.2-.4.1h-.4l-.4.1H155.9l-.4-.2-.4-.1-.3-.2-.4-.3-.3-.2-.3-.3-.2-.3-.2-.4-.2-.3-.2-.4v-.4l-.1-.4v-2.1l.1-.4v-.4l.1-.4v-.5l.1-.4v-.4l.1-.5V99l.1-.4V98l.1-.4V97l.1-.4.1-.4v-.5l.1-.4.1-.5v-.4l.2-.5v-.4l.1-.5.1-.4v-.5l.2-.4v-.5l.1-.4.1-.5.1-.4.1-.5.1-.4.1-.5.1-.5.2-.4v-.5l.2-.4.1-.5.1-.4.1-.5.2-.4v-.5l.2-.2v-.4l.2-.3v-.2l.1-.2V83l.1-.3.1-.2v-.2l.2-.2v-.3l.1-.2v-.2l.2-.2V81l.1-.3.1-.2v-.2l.2-.2v-.2l.1-.3.1-.2.1-.2V79l.2-.2v-.3l.2-.2v-.2l.1-.2.1-.2.1-.2.1-.3.1-.2.1-.2.1-.2.1-.2.1-.2.1-.2.1-.2.1-.3.1-.2.1-.2.1-.2.1-.2.1-.2.2-.2v-.2l.2-.2v-.2l.2-.2.1-.2.1-.2.1-.2.2-.2v-.2l.2-.2.1-.2.1-.2.2-.2.1-.2.1-.2.2-.2v-.2l.2-.2.1-.2.2-.2.1-.2.1-.2.2-.2.1-.2.2-.1.1-.2.1-.2.2-.2.1-.2.2-.2.1-.2.2-.1.1-.2.2-.2.1-.2.2-.2.1-.1.2-.2.2-.2.1-.2.2-.1.1-.2.2-.2.2-.1.1-.2.2-.2.2-.1.1-.2.2-.2.2-.1.2-.2.1-.1.2-.2.2-.1.2-.2.2-.2.2-.1.1-.2.2-.1.2-.1.2-.2.2-.1.2-.2.2-.1.2-.2.2-.1.2-.1.2-.2.2-.1.2-.1.2-.2h.2l.2-.2.2-.1.2-.2h.2l.3-.2.2-.1.2-.1.2-.2h.2l.3-.2h.2l.2-.2.2-.1.3-.1.2-.1.2-.1.2-.1.3-.1h.2l.3-.2h.2l.2-.2h.3l.2-.1.3-.1.2-.1h.2l.3-.1.2-.1h.3l.2-.2h.3l.3-.1h.2l.3-.1h.2l.3-.1h.2l.3-.1h.3l.2-.1h.3l.3-.1h.2l.3-.1h.6l.2-.1h.6l.3-.1h1l.2-.1h5.6l.3.1h.7l.3.1h.7l.3.1h.4l.3.1h.5l.2.1h.5l.3.1h.2l.2.1h.3l.2.1h.5l.2.1h.3l.2.1.5.1.5.1.4.1.5.1.5.1.4.1.4.1.4.1.4.1.4.1.4.1.4.1.3.1.4.1.4.1.4.2h.4l.4.2.4.1.4.1.3.1.4.2h.4l.4.2.4.1.4.2h.3l.4.2.4.1.4.2.3.1.8.3.7.2.8.3.7.2.7.3 1.5.5.7.3.7.3.7.2.8.3h.3l.4.2.3.1.4.2h.3l.4.2.4.1.3.1.4.1.3.2h.4l.3.2h.4l.3.2.4.1.4.1.6.2h.3l.3.2h.3l.3.2h.5l.2.1h.1l.2.1H226.7l.2.1H227.2l.1.1H227.6l.2.1h.4l.2.1h.7l.1.1H231.3V68H231.7l.1-.1h.2v-.1h.1v-.1h.1v-.1h.1v-.4h.1v-2.6l-.1-.1V64l-.1-.1V63.7l-.1-.2v-.1l-.1-.2V63l-.1-.1v-.2l-.1-.1v-.1l-.1-.2V62l-.2-.1v-.4l-.2-.2v-.4l-.2-.2v-.2l-.1-.1V60l-.2-.2v-.2l-.1-.2v-.2l-.2-.2V59l-.1-.2-.1-.2v-.2l-.2-.2V58l-.1-.1-.1-.2-.1-.2-.1-.2v-.2l-.2-.1v-.2l-.2-.2v-.2l-.2-.2v-.1l-.1-.2-.1-.2-.1-.2-.1-.1-.1-.2-.1-.2-.1-.2-.1-.2-.1-.1-.2-.2V54l-.2-.2v-.1l-.2-.2v-.2l-.2-.2-.1-.1-.1-.2-.1-.2-.1-.1-.2-.2v-.2l-.2-.2-.1-.1-.1-.2-.1-.2-.2-.1v-.2l-.2-.2-.1-.1-.1-.2-.2-.2v-.1l-.2-.2-.1-.2-.1-.1-.2-.2-.1-.2-.1-.1-.2-.2v-.1l-.2-.2-.1-.2-.2-.1-.1-.2-.1-.1-.2-.2-.1-.2-.1-.1-.2-.2-.1-.1-.1-.2-.2-.2-.1-.1-.2-.2v-.1l-.2-.2-.2-.1-.1-.2-.2-.1v-.2l-.2-.1-.2-.2-.1-.1-.2-.2-.1-.1-.2-.2-.1-.1-.1-.2-.2-.1-.1-.2-.2-.1-.1-.2-.2-.1-.1-.2-.2-.1-.1-.2-.2-.1-.1-.1-.2-.2-.1-.1-.2-.2-.1-.1-.2-.1-.1-.2-.2-.1-.1-.2-.2-.1-.2-.1-.1-.2-.3-.2-.3-.3-.3-.3-.3-.2-.2-.2-.3-.2-.2-.2-.2-.1-.3-.2-.2-.2-.2-.2-.3-.2-.2-.2-.3-.2-.2-.2-.2-.2-.3-.1-.2-.2-.3-.2-.2-.2-.3-.2-.2-.1-.3-.2-.2-.2-.3-.2-.2-.1-.3-.2-.2-.2-.3-.1-.2-.2-.3-.2-.2-.1-.3-.2-.3-.2-.2-.1-.3-.2-.2-.1-.3-.2-.2-.1-.3-.2-.3-.1-.2-.2-.3-.1-.2-.2-.3-.1-.3-.2h-.2l-.3-.2-.3-.2-.2-.1-.3-.1-.3-.2h-.2l-.3-.2-.3-.1-.2-.2h-.3l-.3-.2-.2-.1-.3-.1-.3-.1-.2-.1-.3-.1-.3-.1-.3-.1-.2-.1-.3-.1-.2-.1h-.2l-.1-.1h-.2l-.2-.1-.2-.1h-.2l-.1-.1h-.2l-.2-.1h-.2l-.1-.1h-.2l-.2-.1h-.2l-.1-.1h-.2l-.2-.1h-.2l-.1-.1h-.2l-.2-.1h-.2l-.1-.1h-.2l-.2-.1H195.1l-.2-.1h-.2l-.2-.1H194.2l-.2-.1H193.7l-.2-.1h-.4l-.1-.1h-.4l-.1-.1h-.4l-.2-.1h-.5l-.2-.1h-.6l-.2-.1h-.7l-.2-.1h-1l-.1-.1h-1.6l-.3-.1H182.5l-.3.1h-.6l-.4.1h-.6l-.3.1h-.4l-.3.1h-.3l-.3.1h-.3l-.4.1h-.3l-.3.1h-.3l-.3.2h-.7l-.3.2h-.3l-.3.1h-.3l-.3.2h-.3l-.3.1-.4.1-.3.1-.3.1-.3.1-.3.1-.3.1-.3.1-.3.1-.3.1-.3.1-.3.1-.3.2h-.3l-.3.2-.3.1-.3.1-.3.2h-.3l-.3.2-.3.1-.3.2-.3.1-.3.2h-.3l-.2.2-.3.2-.3.1-.3.2-.3.1-.3.2-.3.1-.3.2-.2.2-.3.1-.3.2-.3.1-.3.2-.2.2-.3.1-.3.2-.3.2-.2.2-.3.2-.3.1-.3.2-.2.2-.3.2-.3.2-.2.2-.3.2-.3.2-.2.1-.3.2-.3.2-.2.2-.3.3-.2.2-.3.2-.3.2-.2.2-.3.2-.2.2-.3.2-.2.2-.3.3-.2.2-.3.2-.2.2-.3.3-.2.2-.2.2-.3.2-.2.3-.3.2-.2.2-.2.3-.3.2-.2.3-.2.2-.3.3-.2.2-.2.2-.3.3-.2.2-.2.3-.2.3-.3.2-.2.3-.2.2-.2.3-.2.2-.3.3-.2.3-.2.2-.2.3-.2.3-.2.2-.2.3-.2.3-.2.2-.2.3-.2.3-.2.3-.2.3-.2.2-.2.3-.2.3-.2.3-.2.3-.2.3-.2.2-.2.3-.2.3-.2.3-.1.3-.2.3-.2.3-.2.3-.2.3-.1.3-.2.3-.2.3-.2.3-.1.3-.2.3-.2.3-.1.3-.2.3-.1.3-.2.3-.2.3-.1.3-.2.3-.1.3-.2.4-.1.3-.2.3-.1.3-.2.3-.1.3-.1.3-.2.4-.1.3-.1.3-.2.3-.1.4-.1.3-.2.3-.1.3-.1.3-.1.4-.2.3v.3l-.2.3-.1.4-.1.3-.1.3-.2.4v.3l-.2.3v.4l-.2.3v.3l-.2.4v.3l-.2.3v.4l-.2.3v.3l-.1.4-.1.3-.1.3v.4l-.2.3v.4l-.1.3v.3l-.2.4v.3l-.1.5-.1.5-.1.4v.5l-.2.5v.4l-.1.5-.1.5v.4l-.2.5v1l-.2.4v1l-.1.5v.4l-.1.5v.7l-.1.3V84l-.1.3v1.2l-.1.2v2.4l-.1.3v5.2l.1.3V95l.1.3V96.3l.1.3v.7l.1.2v.7l.1.2v.5l.1.2v.5l.1.2v.5l.1.2v.3l.1.2v.5l.1.2v.2l.1.2v.3l.1.2v.2l.1.3v.2l.1.2v.2l.1.3V104.3l.2.4v.5l.1.2v.3l.1.3v.3l.2.3v.5l.1.1V107.5l.1.2v.1l.1.2v.1l.1.2v.2l.1.2.1.2v.1l.1.1v.2h.1l.1.1.4.3.3.2.3.3.2.3.2.4.2.3.2.4v.4l.2.4V113.6l-.2.4-.1.4-.2.3-.2.4-.2.3-.3.3-.3.3-.3.2-.4.2-.3.2-.4.1-.4.1h-2l-.2-.2h-.2l-.3-.1-.2-.1-.2-.1-.1-.1-.2-.1-.2-.1-.1-.2h-.2l-.1-.2-.2-.1v-.1l-.2-.1-.1-.2h-.1l-.1-.2-.1-.1-.1-.1v-.1l-.2-.1v-.2h-.1l-.1-.2-.1-.2-.1-.1v-.1l-.1-.1v-.1l-.1-.1-.1-.1v-.1l-.1-.2-.2-.3v-.2l-.1-.2-.1-.2-.1-.2v-.2l-.2-.2v-.3l-.1-.2v-.2l-.1-.2-.1-.2v-.2l-.1-.2v-.2l-.1-.2v-.2l-.1-.2v-.2l-.1-.2v-.2l-.1-.2-.1-.3v-.4l-.2-.3v-.6l-.2-.5v-.5h-.1v-.3l-.1-.3v-.2l-.1-.3v-.3l-.1-.2v-.3l-.1-.2v-.3l-.1-.3v-.2l-.1-.3v-.2l-.1-.3v-.3l-.1-.2v-.6l-.1-.2v-.3l-.1-.3v-.5l-.1-.2v-.6l-.1-.2V98l-.1-.2V97l-.1-.3v-1l-.1-.3v-1.3l-.1-.3v-2.4l-.1-.3V86l.1-.2V84l.1-.3v-1.1l.1-.2V82l.1-.6V81l.1-.5v-.5l.1-.6.1-.5v-.5l.2-.5v-.5l.1-.6v-.5l.2-.5v-.5l.1-.5.1-.5.1-.5.1-.6.1-.5.1-.5.1-.4v-.3l.2-.4v-.4l.1-.4.1-.4.1-.4.1-.3.1-.4.1-.4.1-.4.1-.4.1-.3.1-.4.1-.4.2-.4v-.3l.2-.4.1-.4.1-.4.1-.3.2-.4.1-.4.1-.4.2-.3v-.4l.2-.4.2-.3.1-.4.1-.4.2-.3.1-.4.2-.4.1-.3.2-.4.1-.3.2-.4.1-.4.2-.3.2-.4.1-.3.2-.4.2-.3.1-.4.2-.4.2-.3.1-.4.2-.3.2-.4.2-.3.1-.3.2-.4.2-.3.2-.4.2-.3.2-.4.2-.3.2-.3.2-.4.2-.3.2-.3.2-.4.2-.3.2-.3.2-.4.2-.3.2-.3.2-.3.2-.4.2-.3.3-.3.2-.3.2-.4.2-.3.2-.3.3-.3.2-.3.2-.3.2-.3.3-.3.2-.4.2-.3.3-.3.2-.3.3-.3.2-.3.3-.3.2-.3.2-.3.3-.3.2-.3.3-.2.3-.3.2-.3.3-.3.2-.3.3-.3.2-.3.3-.2.3-.3.2-.3.3-.3.3-.2.2-.3.3-.3.3-.3.3-.2.2-.3.3-.2.3-.3.3-.3.3-.2.2-.3.3-.2.3-.3.3-.2.3-.3.3-.2.3-.3.3-.2.3-.3.3-.2.3-.2.3-.3.3-.2.3-.2.3-.3.3-.2.3-.2.3-.2.3-.3.3-.2.3-.2.4-.2.3-.2.3-.2.3-.2.3-.2.3-.2.4-.2.3-.2.3-.2.3-.2.4-.2.3-.2.3-.2.4-.2.3-.2.3-.2.4-.1.3-.2.3-.2.4-.2.3-.1.4-.2.3-.2.3-.1.4-.2.3-.1.4-.2.3-.2.4-.1.3-.1.4-.2.3-.1.4-.2.3-.1.4-.2h.3l.4-.2.4-.1.3-.2h.4l.4-.2.3-.1.4-.1.3-.1.4-.2h.4l.3-.2h.4l.4-.2h.4l.3-.1.4-.1.4-.1.4-.1h.3l.4-.2h.4l.4-.1h.4l.3-.1.4-.1h.4l.4-.1h.4l.4-.1h.3l.4-.1h.8l.4-.1h.8l.4-.1h1.5l.4-.1h1.6zm-49.4 88.4H136.2h.3z"/>
    <path id="ear-left" d="M186.8 57.6h-1.3l-.3.1H184l-.3.1h-.6l-.2.1h-.6l-.3.1h-.2l-.3.1h-.3l-.2.1h-.3l-.3.1h-.2l-.3.1h-.2l-.3.1-.3.1h-.2l-.3.1-.2.1h-.3l-.2.2h-.3l-.2.1h-.2l-.3.2h-.2l-.3.1-.2.1-.3.1-.2.1-.2.1-.3.1h-.2l-.2.2h-.2l-.3.2-.2.1-.2.1-.2.1-.3.1-.2.1-.2.2h-.2l-.2.2-.3.1-.2.1-.2.2h-.2l-.2.2-.2.1-.2.2-.2.1-.2.1-.2.2-.2.1-.2.1-.2.2-.2.1-.2.2-.2.1-.2.2-.2.1-.2.1-.1.2-.2.1-.2.2-.2.2-.2.1-.2.2-.1.1-.2.2-.2.1-.2.2-.1.2-.2.1-.2.2-.1.2-.2.1-.2.2-.1.2-.2.1-.1.2-.2.2-.2.2-.1.1-.2.2-.1.2-.2.2-.1.2-.2.1-.1.2-.2.2-.1.2-.2.2-.1.2-.1.2-.2.1-.1.2-.2.2v.2l-.2.2-.2.2v.2l-.2.2-.1.2-.2.2-.1.2-.1.2-.2.2v.2l-.2.2-.1.2-.1.2-.2.2v.2l-.2.2-.1.2-.1.2-.1.2-.1.2-.2.2v.2l-.2.2v.2l-.2.2v.2l-.2.2v.3l-.2.2v.2l-.2.2v.2l-.2.2v.2l-.2.2v.3l-.2.2v.2l-.2.2v.2l-.1.2-.1.3-.1.2v.2l-.2.2v.2l-.1.3-.1.2-.1.2v.2l-.2.2v.3l-.1.2-.1.2v.2l-.2.2v.3l-.1.2v.2l-.2.2v.3l-.1.2v.2l-.1.2-.1.3v.2l-.1.2-.1.2-.1.5-.2.4v.5l-.2.4-.1.5-.1.4-.1.5-.2.4v.5l-.2.5v.4l-.2.5v.4l-.2.5v.4l-.1.5-.1.4-.1.5v.4l-.2.5v.4l-.1.5v.4l-.2.5v.9l-.2.4v.9l-.1.4v.5l-.1.4-.1.4v.5l-.1.4v.4l-.1.5v.8l-.1.4v.5l-.1.4v1.6l.1.4.2.4.2.3.2.4.2.3.3.3.3.2.4.3.3.2.4.1.4.1.4.1h1.6l.4-.2.3-.2.4-.2.3-.2.3-.3.3-.3.2-.3.3-.3.1-.4.2-.4v-.4l.1-.4v-.8l.1-.4v-.4l.1-.4v-.4l.1-.4v-.8l.1-.4v-.4l.1-.4.1-.4v-.4l.1-.5v-.4l.1-.4V97l.2-.4v-.8l.2-.4v-.9l.2-.4v-.4l.1-.4.1-.4v-.4l.2-.5v-.4l.1-.4.1-.4.1-.4.1-.4.1-.4.1-.4.1-.4.1-.4.1-.4.2-.4v-.4l.2-.4v-.4l.2-.2v-.4l.1-.2.1-.2v-.2l.1-.2v-.2l.2-.2v-.4l.1-.2.1-.2v-.2l.2-.2V83.1l.2-.2v-.2l.1-.2v-.2l.1-.2.1-.2.1-.1v-.2l.1-.2.1-.2.1-.2v-.2l.2-.1v-.2l.1-.2.1-.2V80l.2-.1v-.2l.1-.2.1-.2v-.1l.2-.2v-.2l.2-.1v-.2l.1-.2.1-.2.1-.1.1-.2v-.2l.2-.1v-.2l.2-.1v-.2l.2-.2v-.1l.1-.2.1-.1.1-.2.1-.2.1-.1.1-.2.1-.1.1-.2.1-.1.1-.2.1-.1.1-.2.2-.1v-.2l.2-.1V74l.2-.1v-.1l.2-.2.1-.1.1-.2.1-.1.1-.1.2-.2V73l.2-.1.1-.2.1-.1.1-.1.1-.2.2-.1V72l.2-.1.1-.2.1-.1.2-.1v-.1l.2-.2h.1l.2-.2v-.1l.2-.1.1-.1.2-.2h.1l.1-.2h.2l.1-.2.1-.1.2-.1.1-.1.1-.1.2-.1.1-.1.1-.1.2-.1.1-.1.2-.1.1-.1.1-.1h.2l.1-.2h.2l.1-.2h.2l.1-.1.2-.1.1-.1h.2l.1-.2h.2l.1-.1.2-.1h.2l.1-.2h.2l.1-.1h.2l.2-.1.1-.1h.2l.1-.1.2-.1h.2l.2-.1.1-.1h.2l.2-.1h.1l.2-.1h.2l.2-.1h.2l.1-.1h.2l.2-.1h.2l.2-.1h.2l.2-.1H182.2l.2-.1h.2l.2-.1H183.4l.2-.1h.5l.2-.1h1l.2-.1H190.4l.2.1h.8l.2.1h.7l.2.1h.4l.2.1h.7l.2.1h.2l.2.1h.4l.2.1h.4l.3.1h.2l.4.2h.4l.4.1.5.1.4.1.3.1h.4l.4.2h.3l.4.2h.3l.4.1.3.1.4.1.3.1.4.1.3.1.4.1.3.2h.4l.3.2h.4l.4.2.3.1.4.1.3.2h.4l.3.2.4.1.3.1.4.2.7.2.7.3.8.2.7.3.7.2 1.5.6.7.2.7.3.8.3.7.2.4.1.4.2.3.1.4.1.4.2h.4l.3.2.4.1.4.2h.4l.4.2.4.1.3.1.4.2h.4l.4.2.6.2h.4l.3.2h.4l.3.2h.4l.2.1h.2l.2.1h.2l.2.1h.2l.2.1h.2l.2.1h.4l.2.1h.2l.2.1h.5l.2.1h.4l.2.1h1l.2.1H231.9l.2-.1h.5l.1-.1h.4l.1-.1H233.5l.1-.1h.2l.2-.1h.1l.2-.1.2-.1h.1l.2-.1h.1l.1-.1h.2l.1-.1.2-.1.2-.1h.1l.2-.2h.1l.2-.2h.1l.2-.2h.1l.2-.2.1-.1.2-.1.1-.1.2-.2.2-.2.1-.1.2-.2.2-.2.1-.2.1-.1.1-.1.1-.2.1-.1.1-.2.1-.1v-.1l.2-.2v-.1l.1-.2.1-.1V71l.2-.1V70.7l.1-.2.1-.1v-.2l.1-.1v-.2l.1-.1V69.5l.1-.1V69l.1-.2V68.6l.1-.1V67.9l.1-.1V64.2l-.1-.3v-.5l-.1-.2V63l-.1-.3v-.2l-.1-.2V62l-.1-.2v-.2l-.1-.2v-.2l-.1-.3v-.2l-.2-.2v-.4l-.1-.2v-.1l-.1-.2-.1-.2v-.2l-.2-.3v-.2l-.1-.2-.1-.3-.1-.2v-.2l-.2-.2v-.3l-.1-.2-.1-.2-.1-.2-.1-.3-.1-.2-.1-.2-.1-.2-.1-.3-.1-.2-.1-.2-.1-.2-.1-.2-.1-.3-.1-.2-.1-.2-.1-.2-.1-.2-.1-.2-.1-.3-.2-.2v-.2l-.2-.2v-.2l-.2-.2-.1-.2-.1-.2-.2-.3v-.2l-.2-.2-.1-.2-.1-.2-.2-.2v-.2l-.2-.2-.1-.2-.2-.2v-.2l-.2-.2-.1-.2-.2-.2-.1-.2-.1-.2-.2-.2-.1-.2-.1-.2-.2-.2-.1-.2-.1-.2-.2-.2-.1-.2-.2-.2v-.2l-.2-.2-.2-.2-.1-.2-.2-.2-.1-.2-.1-.2-.2-.2-.1-.2-.2-.2-.1-.1-.2-.2-.1-.2-.2-.2-.1-.2-.2-.2-.1-.2-.2-.1-.1-.2-.2-.2-.1-.2-.2-.2-.1-.2-.2-.1-.2-.2-.1-.2-.2-.2-.1-.2-.2-.1-.2-.2-.1-.2-.2-.2-.1-.1-.2-.2-.2-.2-.1-.2-.2-.1-.1-.2-.2-.2-.2-.1-.1-.2-.2-.2-.2-.1-.1-.2-.2-.2-.2-.1-.2-.2-.1-.2-.2-.1-.2-.2-.1-.2-.2-.1-.2-.2-.1-.1-.2-.2-.2-.2-.2-.1-.1-.2-.2-.1-.2-.2-.2-.1-.1-.2-.4-.3-.3-.3-.4-.3-.3-.2-.2-.2-.3-.2-.2-.3-.3-.2-.3-.2-.2-.2-.3-.2-.3-.2-.2-.2-.3-.2-.3-.2-.2-.2-.3-.2-.3-.2-.3-.2-.2-.3-.3-.1-.3-.3-.3-.1-.2-.2-.3-.2-.3-.2-.3-.2-.3-.2-.3-.2-.3-.2-.2-.2-.3-.2-.3-.2-.3-.1-.3-.2-.3-.2-.3-.2-.3-.2-.3-.1-.3-.2-.3-.2-.3-.2-.3-.1-.3-.2-.3-.2-.3-.1-.3-.2-.3-.1-.4-.2-.3-.2-.3-.1-.3-.2-.3-.1-.3-.2-.3-.1-.4-.2-.3-.1-.3-.1-.3-.2-.4-.1-.3-.1-.3-.2-.3-.1-.4-.1-.3-.2h-.3l-.3-.2h-.3l-.2-.1-.2-.1h-.2l-.2-.1-.2-.1h-.2l-.2-.1-.2-.1h-.2l-.2-.1-.2-.1h-.2l-.3-.1h-.2l-.2-.1-.2-.1h-.2l-.2-.1h-.2l-.2-.1h-.2l-.2-.1h-.2l-.2-.1h-.2l-.2-.1h-.2l-.2-.1h-.2l-.3-.1h-.2l-.2-.1h-.4l-.2-.1h-.2l-.2-.1h-.4l-.2-.1h-.2l-.2-.1h-.4l-.2-.1H192.6l-.2-.1h-.4l-.2-.1h-.7l-.2-.1h-.8l-.2-.1h-1l-.2-.1h-2l-.4-.1H182.4l-.4.1h-.8l-.4.1h-.8l-.4.1h-.3l-.4.1h-.4l-.4.1-.4.1h-.4l-.3.1-.4.1h-.4l-.4.1-.4.1-.3.1h-.4l-.4.2h-.4l-.3.1-.4.1-.4.1-.4.1-.3.1-.4.1-.4.2h-.3l-.4.2-.3.1-.4.1-.4.1-.3.2h-.4l-.4.2-.3.1-.4.2-.3.1-.4.2-.3.1-.4.2-.3.1-.4.1-.3.2-.4.2-.3.1-.4.2-.3.1-.3.2-.4.2-.3.1-.4.2-.3.2-.3.2-.4.1-.3.2-.3.2-.4.2-.3.2-.3.2-.4.2-.3.2-.3.2-.3.2-.4.2-.3.2-.3.2-.3.2-.3.2-.3.2-.4.2-.3.2-.3.2-.3.3-.3.2-.3.2-.3.2-.3.3-.3.2-.3.2-.3.3-.3.2-.3.2-.3.3-.3.2-.3.3-.3.2-.3.3-.3.2-.3.3-.3.2-.2.3-.3.2-.3.3-.3.3-.3.2-.2.3-.3.2-.3.3-.3.3-.2.3-.3.2-.3.3-.2.3-.3.3-.3.2-.2.3-.3.3-.2.3-.3.3-.3.3-.2.3-.3.2-.2.3-.3.3-.2.3-.2.3-.3.3-.2.3-.3.3-.2.3-.3.3-.2.3-.2.4-.3.3-.2.3-.2.3-.2.3-.3.3-.2.3-.2.3-.2.4-.3.3-.2.3-.2.3-.2.4-.2.3-.2.3-.2.3-.2.4-.2.3-.2.3-.2.4-.2.3-.2.3-.2.4-.2.3-.2.3-.2.4-.2.3-.2.4-.2.3-.2.4-.1.3-.2.3-.2.4-.2.3-.1.4-.2.3-.2.4-.2.4-.1.3-.2.4-.1.3-.2.4-.2.3-.1.4-.2.4-.1.3-.2.4-.1.3-.2.4-.1.4-.2.3-.1.4-.1.4-.2.3-.1.4-.1.4-.2.3-.1.4-.1.4-.2.4v.3l-.2.4-.1.4-.1.4-.1.3-.2.4v.4l-.2.4v.3l-.2.4v.4l-.2.4v.4l-.2.3v.4l-.2.4v.4l-.1.4-.1.4-.1.3v.4l-.2.5v.5l-.2.6v.5l-.2.5v.5l-.1.5-.1.5v.5l-.2.6v.5l-.1.5v.5l-.2.5v1.1l-.1.5v.5l-.1.6v.5l-.1.3v1l-.1.3v1.3l-.1.3V88l-.1.3V94l.1.3v1.3l.1.3v.7l.1.3v.8l.1.3v.8l.1.2v.6l.1.2v.6l.1.2v.3l.1.2v.6l.1.2v.3l.1.3v.2l.1.3v.2l.1.3v.3l.1.2v.3l.1.2v.3l.1.3v.2l.1.3.1.2v.2l.1.4.1.5v.3l.1.3.1.3v.4l.2.3v.4l.1.2v.2l.1.2v.2l.1.2v.2l.1.2.1.2v.2l.1.2v.2l.2.2v.3l.1.2v.2l.2.2v.2l.1.2.1.2.1.2v.1l.1.2h.1v.2h.1v.2h.1v.2l.2.1v.1l.1.1v.1l.1.1.1.2h.1v.2l.2.1v.1l.2.1v.1l.2.2h.1l.1.2.2.1.1.1.2.1.1.2h.2l.2.2h.1l.2.2h.2l.3.2h.2l.2.1h.3l.2.1h1.9l.4-.2.3-.2.4-.2.3-.2.3-.3.3-.3.2-.3.2-.4.2-.3.1-.4.1-.4V112l-.1-.4-.2-.4-.2-.3-.2-.4-.2-.3-.3-.3-.3-.2-.4-.3h-.1V109h-.1v-.2l-.1-.1v-.1l-.1-.2v-.1l-.1-.1V108l-.1-.2v-.1l-.1-.2V107.2l-.1-.1v-.2l-.1-.2v-.1l-.1-.3v-.3l-.1-.3-.1-.3v-.2l-.1-.5-.1-.4V104l-.2-.3v-.4l-.1-.2v-.5l-.1-.2v-.3l-.1-.2v-.2l-.1-.2v-.5l-.1-.2v-.3l-.1-.2v-.5l-.1-.2v-.5l-.1-.2v-.5l-.1-.2v-.7l-.1-.2v-.7l-.1-.3v-.7l-.1-.2V94l-.1-.3v-2.1l-.1-.3v-5.2l.1-.3v-1.4l.1-.3V83.2l.1-.3v-.7l.1-.5v-.4l.1-.5v-.5l.1-.5.1-.4v-.5l.1-.5.1-.5v-.4l.2-.5v-.5l.1-.4.1-.5V75l.2-.4v-.5l.2-.5v-.3l.1-.4v-.3l.2-.3V72l.1-.3.1-.4V71l.2-.3v-.4l.1-.3.1-.3.1-.4.1-.3.1-.3.1-.4.1-.3.1-.3.1-.4.1-.3.1-.3.2-.4V66l.2-.3.1-.3.1-.4.1-.3.2-.3V64l.2-.3.1-.3.2-.3v-.4l.2-.3.2-.3v-.3l.2-.3.2-.4.1-.3.1-.3.2-.3.1-.3.2-.3.1-.3.2-.4.1-.3.2-.3.1-.3.2-.3.2-.3.1-.3.2-.3.1-.3.2-.3.2-.3.2-.3.1-.3.2-.3.2-.3.1-.3.2-.3.2-.3.2-.3.2-.3.1-.3.2-.3.2-.3.2-.3.2-.3.2-.2.2-.3.2-.3.2-.3.2-.3.2-.2.2-.3.2-.3.2-.3.2-.3.2-.2.2-.3.2-.3.2-.2.2-.3.2-.3.2-.2.2-.3.3-.3.2-.2.2-.3.2-.2.2-.3.3-.2.2-.3.2-.3.2-.2.3-.3.2-.2.2-.2.3-.3.2-.2.2-.3.3-.2.2-.3.2-.2.3-.2.2-.3.3-.2.2-.2.2-.2.3-.3.2-.2.3-.2.2-.2.3-.3.2-.2.3-.2.2-.2.3-.2.2-.2.3-.2.3-.2.2-.3.3-.2.2-.2.3-.2.3-.2.2-.1.3-.2.3-.2.2-.2.3-.2.3-.2.2-.2.3-.2.3-.1.3-.2.2-.2.3-.2.3-.2.3-.1.2-.2.3-.2.3-.1.3-.2.3-.1.2-.2.3-.2.3-.1.3-.2.3-.1.3-.2.3-.1.3-.2.2-.1.3-.1.3-.2.3-.1.3-.2h.3l.3-.2.3-.1.3-.2h.3l.3-.2.3-.1.3-.1.3-.2h.3l.3-.2h.3l.3-.2h.3l.3-.2h.3l.3-.2h.3l.3-.2h.4l.3-.1.3-.1.3-.1h.3l.3-.2h.3l.3-.1h.4l.3-.1.3-.1h.3l.3-.1h.3l.4-.1.3-.1h.3l.3-.1h.7l.3-.1h.3l.3-.1h1l.3-.1H184.2l.3-.1H188.4l.1.1H189.4l.1.1H190.4l.2.1h.5l.1.1H191.8l.1.1H192.5l.1.1h.4l.1.1h.4l.2.1H194l.2.1H194.5l.2.1h.2l.2.1H195.4l.2.1h.2l.1.1h.2l.2.1h.2l.1.1h.2l.2.1h.2l.1.1h.2l.2.1h.2l.1.1h.2l.2.1h.2l.1.1h.2l.2.2h.4l.1.1h.2l.2.2h.3l.2.2h.3l.3.2h.3l.2.2h.3l.3.2.2.1.3.1.3.1.2.2h.3l.3.2.2.1.3.2.3.1.2.1.3.2.3.1.2.1.3.2.3.1.2.2.3.1.2.2.3.1.3.2.2.1.3.2.2.1.3.2.2.1.3.2.3.2.2.1.3.2.2.2.3.1.2.2.3.2.2.1.3.2.2.2.3.2.2.1.3.2.2.2.3.2.2.2.3.1.2.2.2.2.3.2.2.2.3.2.2.2.2.2.3.2.2.1.2.2.3.2.2.2.3.2.3.3.3.3.3.2.1.2.2.1.2.1.1.2.2.1.1.2h.2l.1.2.2.2.1.1.2.2.1.1.2.1.1.2.2.1.1.2.2.1.1.2.2.1.1.2.2.1.1.2.1.1.2.2.1.1.2.2.1.1.2.2.1.1.1.2.2.1.1.2.2.1.1.2.1.1.2.2.1.1.2.2v.2l.2.1.2.2.1.1.1.2.2.2v.1l.2.2.2.1v.2l.2.2.1.1.2.2.1.1.1.2.2.2v.1l.2.2.1.2.1.1.2.2v.2l.2.1.1.2.1.2.2.1v.2l.2.2.1.1.1.2.1.2.2.2v.1l.2.2.1.2.1.1.1.2.1.2.1.2.1.1.1.2.1.2.2.2v.1l.2.2v.2l.2.2v.1l.2.2v.2l.2.2v.2l.1.1.1.2.1.2.1.2.1.2.1.1.1.2v.2l.2.2v.2l.1.1.1.2.1.2.1.2v.2l.2.2v.1l.1.2v.2l.2.2v.2l.1.2v.2l.2.1v.2l.1.2v.2l.1.2.1.2v.2l.1.2.1.1v.2l.1.1v.2l.1.2v.2l.1.1V63.2l.1.2v.1l.1.2V64l.1.1V64.4l.1.2V65.2l.1.1V67.5h-.1v.2h-.1v.1h-.1v.1h-.2v.1H231.4l-.1.1h-.5v.1H228.5l-.2-.1h-.5l-.1-.1h-.5l-.1-.1H226.9l-.2-.1h-.2l-.1-.1H226l-.2-.1h-.1l-.4-.1-.3-.1-.3-.1-.3-.1-.3-.1-.6-.2h-.4l-.4-.2-.3-.1-.4-.1-.3-.1-.4-.1-.3-.2h-.4l-.3-.2-.4-.1-.4-.1-.3-.1-.4-.2h-.3l-.4-.2-.3-.1-.8-.3-.7-.2-.7-.3-.7-.3-1.5-.5-.7-.3-.7-.2-.8-.3-.7-.2-.8-.3-.3-.1-.4-.2h-.4l-.4-.2-.3-.1-.4-.2h-.4l-.4-.2-.4-.1-.4-.2h-.3l-.4-.2-.4-.1-.4-.1-.4-.1-.4-.2h-.4l-.4-.2h-.3l-.4-.2h-.4l-.4-.2h-.4l-.4-.2h-.4l-.4-.2h-.5l-.5-.2h-.4l-.5-.2h-.5l-.2-.1h-.3l-.2-.1h-.2l-.3-.1h-.5l-.2-.1h-.2l-.3-.1h-.5l-.2-.1h-.5l-.3-.1h-.4l-.3-.1h-.5l-.2-.1h-1l-.3-.1h-1.2l-.3-.1h-2.5zM136.4 109h.1-.2z" transform="matrix(-1 0 0 1 244.8 11)"/>
  </g>
</svg>
